<?xml version="1.0" encoding="UTF-8" standalone="no"?>
<svg
   xmlns:dc="http://purl.org/dc/elements/1.1/"
   xmlns:cc="http://creativecommons.org/ns#"
   xmlns:rdf="http://www.w3.org/1999/02/22-rdf-syntax-ns#"
   xmlns:svg="http://www.w3.org/2000/svg"
   xmlns="http://www.w3.org/2000/svg"
   viewBox="0 0 33.578667 33.578667"
   height="33.578667"
   width="33.578667"
   xml:space="preserve"
   id="svg2"
   version="1.1"><metadata
     id="metadata8"><rdf:RDF><cc:Work
         rdf:about=""><dc:format>image/svg+xml</dc:format><dc:type
           rdf:resource="http://purl.org/dc/dcmitype/StillImage" /></cc:Work></rdf:RDF></metadata><defs
     id="defs6" /><g
     transform="matrix(1.0666666,0,0,1.0666666,0,-1.0879988)"
     id="g10"><g
       id="g12"><g
         transform="translate(-358.56797,-470.90766)"
         id="g14"><g
           transform="matrix(0.872921,0,0,0.872921,-36.465341,461.35074)"
           id="g16"><g
             id="g18"><path
               id="path20"
               style="fill:#ffffff;fill-opacity:1;fill-rule:nonzero;stroke:none"
               d="m 486.26599,30.10776 c 0.006,8.68024 -7.02789,15.72153 -15.70813,15.72711 -8.68018,0.0045 -15.7226,-7.02786 -15.72705,-15.70807 0,-0.0067 0,-0.01233 0,-0.01904 -0.005,-8.68134 7.02783,-15.72263 15.70807,-15.72708 8.68134,-0.0056 15.7215,7.02786 15.72711,15.70807 0,0.0056 0,0.01229 0,0.01901 z" /></g><g
             transform="translate(-289.6157,99.0653)"
             id="g22"><g
               id="g24"><path
                 id="path26"
                 style="fill:#000000;fill-opacity:1;fill-rule:nonzero;stroke:none"
                 d="m 772.94055,-81.76028 c 3.48596,3.48596 5.22888,7.75391 5.22888,12.80273 0,5.04882 -1.71277,9.27203 -5.13831,12.66739 -3.63477,3.57657 -7.93176,5.36429 -12.88892,5.36429 -4.89771,0 -9.11987,-1.77316 -12.66626,-5.31955 -3.54517,-3.54526 -5.31836,-7.78299 -5.31836,-12.71213 0,-4.92911 1.77319,-9.19595 5.31836,-12.80273 3.45581,-3.48706 7.67786,-5.22894 12.66626,-5.22894 5.04774,-1e-5 9.31349,1.74188 12.79835,5.22894 z m -23.11743,2.34484 c -2.94678,2.97583 -4.41907,6.46292 -4.41907,10.46237 0,3.99835 1.45776,7.4552 4.37427,10.37064 2.91541,2.9165 6.38794,4.37421 10.4165,4.37421 4.02856,0 7.53015,-1.47223 10.50598,-4.41898 2.82593,-2.73529 4.23999,-6.17651 4.23999,-10.32587 0,-4.11804 -1.4364,-7.61295 -4.30713,-10.48474 -2.87061,-2.87067 -6.34985,-4.30597 -10.43884,-4.30597 -4.08899,0 -7.54577,1.44315 -10.3717,4.32834 z m 7.755,8.70261 c -0.45081,-0.98111 -1.12549,-1.47226 -2.0238,-1.47226 -1.58972,0 -2.38403,1.06952 -2.38403,3.20853 0,2.14014 0.79431,3.20963 2.38403,3.20963 1.04944,0 1.79895,-0.5213 2.24866,-1.56509 l 2.20276,1.17355 c -1.04932,1.86493 -2.62451,2.79794 -4.72546,2.79794 -1.62,0 -2.91772,-0.4967 -3.89209,-1.48904 -0.97668,-0.99341 -1.46216,-2.36273 -1.46216,-4.10797 0,-1.715 0.50122,-3.07761 1.50696,-4.0856 1.00574,-1.00797 2.25647,-1.51251 3.75781,-1.51251 2.21948,0 3.8103,0.87485 4.77026,2.62231 z m 10.3628,0 c -0.45081,-0.98111 -1.11096,-1.47226 -1.98242,-1.47226 -1.62097,0 -2.43213,1.06952 -2.43213,3.20853 0,2.14014 0.81116,3.20963 2.43213,3.20963 1.05054,0 1.78662,-0.5213 2.20728,-1.56509 l 2.25195,1.17355 c -1.04822,1.86493 -2.62109,2.79794 -4.71765,2.79794 -1.61768,0 -2.91321,-0.4967 -3.88647,-1.48904 -0.97217,-0.99341 -1.45874,-2.36273 -1.45874,-4.10797 0,-1.715 0.49438,-3.07761 1.4823,-4.0856 0.98779,-1.00797 2.24524,-1.51251 3.77344,-1.51251 2.21619,0 3.80371,0.87485 4.76135,2.62231 z" /></g></g></g></g></g></g></svg>